SevenFF.ufo
<glyph name="C" format="1">
  <advance width="894"/>
  <unicode hex="0043"/>
  <outline>
    <contour>
      <point x="454" y="1905" type="curve" smooth="yes"/>
      <point x="735.548" y="1905"/>
      <point x="803" y="1732.86"/>
      <point x="803" y="1452" type="curve" smooth="yes"/>
      <point x="803" y="1370.05"/>
      <point x="798.002" y="1279.62"/>
      <point x="792" y="1198" type="curve"/>
      <point x="549" y="1198" type="line"/>
      <point x="557.927" y="1305.12"/>
      <point x="567" y="1411.4"/>
      <point x="567" y="1513" type="curve" smooth="yes"/>
      <point x="567" y="1626.65"/>
      <point x="561.694" y="1753"/>
      <point x="454" y="1753" type="curve" smooth="yes"/>
      <point x="326" y="1753"/>
      <point x="317" y="1442.34"/>
      <point x="317" y="938" type="curve" smooth="yes"/>
      <point x="317" y="275.343"/>
      <point x="338" y="129"/>
      <point x="467" y="129" type="curve" smooth="yes"/>
      <point x="573.893" y="129"/>
      <point x="596.341" y="256.345"/>
      <point x="596.341" y="417.189" type="curve" smooth="yes"/>
      <point x="596.341" y="542.245"/>
      <point x="584.748" y="687.551"/>
      <point x="576" y="809" type="curve"/>
      <point x="807" y="809" type="line"/>
      <point x="825.532" y="659.719"/>
      <point x="833.592" y="528.201"/>
      <point x="833.592" y="416.241" type="curve" smooth="yes"/>
      <point x="833.592" y="129.462"/>
      <point x="752.904" y="-29"/>
      <point x="454" y="-29" type="curve" smooth="yes"/>
      <point x="101" y="-29"/>
      <point x="57" y="248.343"/>
      <point x="57" y="938" type="curve" smooth="yes"/>
      <point x="57" y="1505.34"/>
      <point x="68" y="1905"/>
    </contour>
  </outline>
</glyph>
<glyph name="F" format="1">
  <advance width="657"/>
  <unicode hex="0046"/>
  <outline>
    <contour>
      <point x="662" y="1866" type="line"/>
      <point x="662" y="1686" type="line"/>
      <point x="330" y="1686" type="line"/>
      <point x="330" y="1040" type="line"/>
      <point x="606" y="1040" type="line"/>
      <point x="606" y="862" type="line"/>
      <point x="330" y="862" type="line"/>
      <point x="330" y="0" type="line"/>
      <point x="90" y="0" type="line"/>
      <point x="90" y="1866" type="line"/>
    </contour>
  </outline>
</glyph>
<glyph name="G" format="1">
  <advance width="913"/>
  <unicode hex="0047"/>
  <outline>
    <contour>
      <point x="456.38" y="-35" type="curve" smooth="yes"/>
      <point x="46.3799" y="-35"/>
      <point x="59.3799" y="429"/>
      <point x="59.3799" y="938" type="curve" smooth="yes"/>
      <point x="59.3799" y="1404"/>
      <point x="31.3799" y="1909"/>
      <point x="456.38" y="1909" type="curve" smooth="yes"/>
      <point x="814.38" y="1909"/>
      <point x="839.354" y="1578.41"/>
      <point x="791.38" y="1233" type="curve"/>
      <point x="569.38" y="1233" type="line"/>
      <point x="579.21" y="1381.59"/>
      <point x="594.104" y="1526.99"/>
      <point x="564.88" y="1642" type="curve" smooth="yes"/>
      <point x="548.371" y="1706.97"/>
      <point x="524.057" y="1755"/>
      <point x="454.38" y="1755" type="curve" smooth="yes"/>
      <point x="369.15" y="1755"/>
      <point x="348.291" y="1675.29"/>
      <point x="336.88" y="1584" type="curve" smooth="yes"/>
      <point x="314.734" y="1406.83"/>
      <point x="319.38" y="1218.45"/>
      <point x="319.38" y="989" type="curve" smooth="yes"/>
      <point x="319.38" y="735.33"/>
      <point x="314.732" y="506.294"/>
      <point x="345.88" y="311.5" type="curve" smooth="yes"/>
      <point x="363.38" y="202.052"/>
      <point x="379.851" y="127"/>
      <point x="477.38" y="127" type="curve" smooth="yes"/>
      <point x="624.391" y="127"/>
      <point x="610.38" y="324"/>
      <point x="610.38" y="455" type="curve" smooth="yes"/>
      <point x="608.38" y="806" type="line"/>
      <point x="434.38" y="806" type="line"/>
      <point x="434.38" y="976" type="line"/>
      <point x="837.38" y="976" type="line"/>
      <point x="837.38" y="0" type="line"/>
      <point x="792.38" y="0" type="line"/>
      <point x="723.38" y="147" type="line"/>
      <point x="672.862" y="35.6318"/>
      <point x="602.779" y="-35"/>
    </contour>
  </outline>
</glyph>
<glyph name="I" format="1">
  <advance width="422"/>
  <unicode hex="0049"/>
  <outline>
    <contour>
      <point x="330" y="1866" type="line"/>
      <point x="330" y="0" type="line"/>
      <point x="90" y="0" type="line"/>
      <point x="90" y="1866" type="line"/>
    </contour>
  </outline>
</glyph>
<glyph name="J" format="1">
  <advance width="514"/>
  <unicode hex="004A"/>
  <outline>
    <contour>
      <point x="3" y="199" type="line"/>
      <point x="171.758" y="192.377"/>
      <point x="189.858" y="314.55"/>
      <point x="190" y="483" type="curve" smooth="yes"/>
      <point x="190" y="1866" type="line"/>
      <point x="429" y="1866" type="line"/>
      <point x="429" y="516" type="line"/>
      <point x="430.972" y="191.284"/>
      <point x="337.085" y="-29.4082"/>
      <point x="3" y="-12" type="curve"/>
    </contour>
  </outline>
</glyph>
<glyph name="L" format="1">
  <advance width="708"/>
  <unicode hex="004C"/>
  <outline>
    <contour>
      <point x="352" y="1866" type="line"/>
      <point x="352" y="160" type="line"/>
      <point x="719" y="160" type="line"/>
      <point x="719" y="0" type="line"/>
      <point x="90" y="0" type="line"/>
      <point x="90" y="1866" type="line"/>
    </contour>
  </outline>
</glyph>
<glyph name="M" format="1">
  <advance width="1131"/>
  <unicode hex="004D"/>
  <outline>
    <contour>
      <point x="716" y="1866" type="line"/>
      <point x="1039" y="1866" type="line"/>
      <point x="1039" y="0" type="line"/>
      <point x="807" y="0" type="line"/>
      <point x="813" y="1393" type="line"/>
      <point x="801" y="1393" type="line"/>
      <point x="651" y="0" type="line"/>
      <point x="477" y="0" type="line"/>
      <point x="307" y="1371" type="line"/>
      <point x="295" y="1371" type="line"/>
      <point x="301" y="0" type="line"/>
      <point x="90" y="0" type="line"/>
      <point x="90" y="1866" type="line"/>
      <point x="403" y="1866" type="line"/>
      <point x="557" y="788" type="line"/>
      <point x="569" y="788" type="line"/>
    </contour>
  </outline>
</glyph>
<glyph name="N" format="1">
  <advance width="936"/>
  <unicode hex="004E"/>
  <outline>
    <contour>
      <point x="474.761" y="1440.8" type="move"/>
      <point x="631" y="768" type="line"/>
      <point x="643" y="770" type="line"/>
      <point x="623" y="1866" type="line"/>
      <point x="826" y="1866" type="line"/>
      <point x="826" y="0" type="line"/>
      <point x="607" y="0" type="line"/>
      <point x="487.694" y="496.681" type="line"/>
    </contour>
    <contour>
      <point x="487.694" y="496.681" type="move"/>
      <point x="325" y="1212" type="line"/>
      <point x="312" y="1210" type="line"/>
      <point x="328" y="0" type="line"/>
      <point x="111" y="0" type="line"/>
      <point x="111" y="1866" type="line"/>
      <point x="365" y="1866" type="line"/>
      <point x="474.761" y="1440.8" type="line"/>
    </contour>
  </outline>
</glyph>
<glyph name="O" format="1">
  <advance width="925"/>
  <unicode hex="004F"/>
  <outline>
    <contour>
      <point x="454.296" y="1737" type="curve" smooth="yes"/>
      <point x="365.36" y="1737"/>
      <point x="345.85" y="1666.76"/>
      <point x="334.296" y="1583" type="curve"/>
      <point x="310.233" y="1388.46"/>
      <point x="319.85" y="1171.85"/>
      <point x="317.296" y="938" type="curve"/>
      <point x="323.87" y="668.448"/>
      <point x="297.655" y="400.053"/>
      <point x="357.796" y="197.5" type="curve"/>
      <point x="375.834" y="157.352"/>
      <point x="401.473" y="135"/>
      <point x="454.296" y="135" type="curve" smooth="yes"/>
      <point x="544.045" y="135"/>
      <point x="562.57" y="206.356"/>
      <point x="574.796" y="290.5" type="curve"/>
      <point x="600.005" y="484.682"/>
      <point x="589.457" y="703.785"/>
      <point x="592.296" y="938" type="curve"/>
      <point x="585.943" y="1207.16"/>
      <point x="611.739" y="1473.9"/>
      <point x="551.296" y="1675.5" type="curve"/>
      <point x="533.728" y="1715.91"/>
      <point x="507.079" y="1737"/>
    </contour>
    <contour>
      <point x="852.296" y="938" type="curve" smooth="yes"/>
      <point x="852.296" y="514.396"/>
      <point x="883.796" y="-35"/>
      <point x="454.296" y="-35" type="curve" smooth="yes"/>
      <point x="31.7959" y="-35"/>
      <point x="57.2959" y="487.396"/>
      <point x="57.2959" y="938" type="curve" smooth="yes"/>
      <point x="57.2959" y="1384.4"/>
      <point x="46.7959" y="1909"/>
      <point x="454.296" y="1909" type="curve" smooth="yes"/>
      <point x="892.796" y="1909"/>
      <point x="852.296" y="1390.4"/>
    </contour>
  </outline>
</glyph>
<glyph name="P" format="1">
  <advance width="863"/>
  <unicode hex="0050"/>
  <outline>
    <contour>
      <point x="455" y="1866" type="line" smooth="yes"/>
      <point x="755.891" y="1866"/>
      <point x="817" y="1655.97"/>
      <point x="817" y="1354" type="curve"/>
      <point x="818.524" y="1018.79"/>
      <point x="672.959" y="837.604"/>
      <point x="332" y="850" type="curve"/>
      <point x="330" y="891" type="line"/>
      <point x="330" y="0" type="line"/>
      <point x="90" y="0" type="line"/>
      <point x="90" y="1866" type="line"/>
    </contour>
    <contour>
      <point x="330" y="1016" type="line"/>
      <point x="557.161" y="996.74"/>
      <point x="579.118" y="1132.17"/>
      <point x="569" y="1352" type="curve"/>
      <point x="569" y="1523.5"/>
      <point x="575.375" y="1722"/>
      <point x="408" y="1722" type="curve" smooth="yes"/>
      <point x="330" y="1722" type="line"/>
    </contour>
  </outline>
</glyph>
<glyph name="Q" format="1">
  <advance width="929"/>
  <unicode hex="0051"/>
  <outline>
    <contour>
      <point x="458" y="1778" type="curve" smooth="yes"/>
      <point x="369.784" y="1778"/>
      <point x="350.541" y="1681.45"/>
      <point x="338" y="1584.5" type="curve"/>
      <point x="316.387" y="1392.31"/>
      <point x="323.069" y="1183.49"/>
      <point x="321" y="938" type="curve"/>
      <point x="323.033" y="690.245"/>
      <point x="316.42" y="483.039"/>
      <point x="338" y="288.5" type="curve"/>
      <point x="350.533" y="190.649"/>
      <point x="369.45" y="94"/>
      <point x="458" y="94" type="curve" smooth="yes"/>
      <point x="547.607" y="94"/>
      <point x="566.397" y="190.102"/>
      <point x="579" y="288.5" type="curve"/>
      <point x="600.598" y="482.09"/>
      <point x="593.937" y="691.047"/>
      <point x="596" y="938" type="curve"/>
      <point x="593.961" y="1184.3"/>
      <point x="600.598" y="1391.36"/>
      <point x="579" y="1584.5" type="curve"/>
      <point x="566.351" y="1682.29"/>
      <point x="547.352" y="1778"/>
    </contour>
    <contour>
      <point x="856" y="938" type="curve"/>
      <point x="838.947" y="489.612"/>
      <point x="930.968" y="-46.0576"/>
      <point x="458" y="-35" type="curve"/>
      <point x="-14.0059" y="-46.0186"/>
      <point x="78.6338" y="487.772"/>
      <point x="61" y="938" type="curve"/>
      <point x="78.5059" y="1387.53"/>
      <point x="-13.7861" y="1918.09"/>
      <point x="458" y="1909" type="curve"/>
      <point x="930.017" y="1920.54"/>
      <point x="838.898" y="1388.23"/>
    </contour>
  </outline>
</glyph>
<glyph name="S" format="1">
  <advance width="858"/>
  <unicode hex="0053"/>
  <outline>
    <contour>
      <point x="45" y="1468" type="curve"/>
      <point x="52.3037" y="1714.46"/>
      <point x="156.092" y="1894.84"/>
      <point x="403" y="1903" type="curve"/>
      <point x="645.449" y="1903"/>
      <point x="768" y="1788.58"/>
      <point x="768" y="1548" type="curve" smooth="yes"/>
      <point x="768" y="1468"/>
      <point x="754.187" y="1395.43"/>
      <point x="739" y="1323" type="curve"/>
      <point x="516" y="1323" type="line"/>
      <point x="524.547" y="1399.92"/>
      <point x="545" y="1481.39"/>
      <point x="545" y="1571" type="curve" smooth="yes"/>
      <point x="545" y="1670.8"/>
      <point x="518.193" y="1745"/>
      <point x="418" y="1745" type="curve" smooth="yes"/>
      <point x="309.382" y="1745"/>
      <point x="291" y="1630.65"/>
      <point x="291" y="1522" type="curve"/>
      <point x="270.766" y="1135.34"/>
      <point x="588.252" y="1099.51"/>
      <point x="728" y="873.5" type="curve"/>
      <point x="781.921" y="782.882"/>
      <point x="809" y="670.495"/>
      <point x="809" y="518" type="curve"/>
      <point x="815.533" y="203.839"/>
      <point x="748.084" y="-33.5957"/>
      <point x="434" y="-29" type="curve"/>
      <point x="155.602" y="-33.8027"/>
      <point x="55.3486" y="126.237"/>
      <point x="61" y="403" type="curve"/>
      <point x="61" y="517.424"/>
      <point x="79.1309" y="619.523"/>
      <point x="102" y="711" type="curve"/>
      <point x="321" y="711" type="line"/>
      <point x="303.405" y="626.547"/>
      <point x="289" y="527.355"/>
      <point x="289" y="424" type="curve"/>
      <point x="293.096" y="292.679"/>
      <point x="303.166" y="158.005"/>
      <point x="426" y="147" type="curve"/>
      <point x="553.947" y="164.638"/>
      <point x="536.385" y="341.171"/>
      <point x="545" y="483" type="curve"/>
      <point x="563.263" y="858.701"/>
      <point x="256.395" y="897.372"/>
      <point x="123" y="1121" type="curve"/>
      <point x="70.9912" y="1210.16"/>
      <point x="45" y="1319.61"/>
    </contour>
  </outline>
</glyph>
<glyph name="T" format="1">
  <advance width="576"/>
  <unicode hex="0054"/>
  <outline>
    <contour>
      <point x="400" y="1683" type="line"/>
      <point x="400" y="0" type="line"/>
      <point x="160" y="0" type="line"/>
      <point x="160" y="1686" type="line"/>
      <point x="-49" y="1686" type="line"/>
      <point x="-49" y="1866" type="line"/>
      <point x="601" y="1866" type="line"/>
      <point x="601" y="1683" type="line"/>
    </contour>
  </outline>
</glyph>
<glyph name="X" format="1">
  <advance width="708"/>
  <unicode hex="0058"/>
  <outline>
    <contour>
      <point x="249" y="1866" type="line"/>
      <point x="350" y="1430" type="line"/>
      <point x="450" y="1866" type="line"/>
      <point x="679" y="1866" type="line"/>
      <point x="466" y="930" type="line"/>
      <point x="683" y="0" type="line"/>
      <point x="475" y="0" type="line"/>
      <point x="362" y="471" type="line"/>
      <point x="255" y="0" type="line"/>
      <point x="26" y="0" type="line"/>
      <point x="245" y="963" type="line"/>
      <point x="30" y="1866" type="line"/>
    </contour>
  </outline>
</glyph>
<glyph name="Y" format="1">
  <advance width="760"/>
  <unicode hex="0059"/>
  <outline>
    <contour>
      <point x="782" y="1866" type="line"/>
      <point x="497" y="410" type="line"/>
      <point x="497" y="0" type="line"/>
      <point x="258" y="0" type="line"/>
      <point x="258" y="410" type="line"/>
      <point x="-43" y="1866" type="line"/>
      <point x="194" y="1866" type="line"/>
      <point x="376" y="870" type="line"/>
      <point x="550" y="1866" type="line"/>
    </contour>
  </outline>
</glyph>
<glyph name="Z" format="1">
  <advance width="662"/>
  <unicode hex="005A"/>
  <outline>
    <contour>
      <point x="48" y="0" type="line"/>
      <point x="48" y="147" type="line"/>
      <point x="373" y="1679" type="line"/>
      <point x="56" y="1679" type="line"/>
      <point x="56" y="1866" type="line"/>
      <point x="625" y="1866" type="line"/>
      <point x="625" y="1747" type="line"/>
      <point x="296" y="184" type="line"/>
      <point x="613" y="184" type="line"/>
      <point x="613" y="0" type="line"/>
    </contour>
  </outline>
</glyph>
<glyph name="bracketleft" format="1">
  <advance width="583"/>
  <unicode hex="005B"/>
  <outline>
    <contour>
      <point x="327" y="60" type="line"/>
      <point x="508" y="60" type="line"/>
      <point x="508" y="-100" type="line"/>
      <point x="92" y="-100" type="line"/>
      <point x="92" y="1963" type="line"/>
      <point x="508" y="1963" type="line"/>
      <point x="508" y="1803" type="line"/>
      <point x="327" y="1803" type="line"/>
    </contour>
  </outline>
</glyph>
<glyph name="backslash" format="1">
  <advance width="585"/>
  <unicode hex="005C"/>
  <outline>
    <contour>
      <point x="15" y="1865" type="line"/>
      <point x="250" y="1865" type="line"/>
      <point x="550" y="1" type="line"/>
      <point x="315" y="1" type="line"/>
    </contour>
  </outline>
</glyph>
<glyph name="bracketright" format="1">
  <advance width="582"/>
  <unicode hex="005D"/>
  <outline>
    <contour>
      <point x="254" y="1803" type="line"/>
      <point x="73" y="1803" type="line"/>
      <point x="73" y="1963" type="line"/>
      <point x="489" y="1963" type="line"/>
      <point x="489" y="-100" type="line"/>
      <point x="73" y="-100" type="line"/>
      <point x="73" y="60" type="line"/>
      <point x="254" y="60" type="line"/>
    </contour>
  </outline>
</glyph>
<glyph name="a" format="1">
  <advance width="788"/>
  <unicode hex="0061"/>
  <outline>
    <contour>
      <point x="363" y="1358" type="curve" smooth="yes"/>
      <point x="515.98" y="1358"/>
      <point x="648" y="1305.19"/>
      <point x="648" y="1157" type="curve" smooth="yes"/>
      <point x="648" y="209" type="line" smooth="yes"/>
      <point x="648" y="157.849"/>
      <point x="664.392" y="131"/>
      <point x="718" y="131" type="curve" smooth="yes"/>
      <point x="739.016" y="131"/>
      <point x="777" y="139"/>
      <point x="777" y="139" type="curve"/>
      <point x="777" y="6" type="line"/>
      <point x="738.516" y="-4.03906"/>
      <point x="694.046" y="-14"/>
      <point x="648" y="-14" type="curve" smooth="yes"/>
      <point x="552.194" y="-14"/>
      <point x="502.727" y="16.2383"/>
      <point x="470" y="76" type="curve"/>
      <point x="430.54" y="22.1914"/>
      <point x="368.548" y="-29"/>
      <point x="275" y="-29" type="curve" smooth="yes"/>
      <point x="155.738" y="-29"/>
      <point x="54" y="74.2998"/>
      <point x="54" y="222.3" type="curve" smooth="yes"/>
      <point x="54" y="464.3" type="line" smooth="yes"/>
      <point x="54" y="680.3"/>
      <point x="180.062" y="751.212"/>
      <point x="317.5" y="803" type="curve" smooth="yes"/>
      <point x="371.629" y="823.396"/>
      <point x="439" y="850.764"/>
      <point x="439" y="922" type="curve" smooth="yes"/>
      <point x="439" y="1097.3" type="line" smooth="yes"/>
      <point x="439" y="1191.3"/>
      <point x="399.994" y="1228"/>
      <point x="359" y="1228" type="curve" smooth="yes"/>
      <point x="292.767" y="1228"/>
      <point x="268.188" y="1153.48"/>
      <point x="268.188" y="1061.32" type="curve" smooth="yes"/>
      <point x="268.188" y="1013"/>
      <point x="274.945" y="952.822"/>
      <point x="286" y="903" type="curve"/>
      <point x="95" y="903" type="line"/>
      <point x="80.3457" y="967.855"/>
      <point x="73.3838" y="1024.94"/>
      <point x="73.3838" y="1074.76" type="curve" smooth="yes"/>
      <point x="73.3838" y="1274.86"/>
      <point x="185.661" y="1358"/>
    </contour>
    <contour>
      <point x="439" y="752" type="line"/>
      <point x="309.68" y="671.703"/>
      <point x="262.273" y="613.991"/>
      <point x="263" y="414" type="curve" smooth="yes"/>
      <point x="263.5" y="276.3" type="line" smooth="yes"/>
      <point x="263.5" y="196.405"/>
      <point x="266.459" y="102"/>
      <point x="347" y="102" type="curve" smooth="yes"/>
      <point x="401.985" y="102"/>
      <point x="439" y="136.3"/>
      <point x="439" y="278.3" type="curve" smooth="yes"/>
    </contour>
  </outline>
</glyph>
<glyph name="b" format="1">
  <advance width="752"/>
  <unicode hex="0062"/>
  <outline>
    <contour>
      <point x="482" y="1358" type="curve"/>
      <point x="591.5" y="1358"/>
      <point x="698" y="1208.3"/>
      <point x="698" y="694.3" type="curve" smooth="yes"/>
      <point x="698" y="249.5"/>
      <point x="653.5" y="-29"/>
      <point x="401" y="-29" type="curve" smooth="yes"/>
      <point x="298.804" y="-29"/>
      <point x="223.5" y="42.2998"/>
      <point x="191" y="141" type="curve"/>
      <point x="156" y="0" type="line"/>
      <point x="90" y="0" type="line"/>
      <point x="90" y="1866" type="line"/>
      <point x="291" y="1866" type="line"/>
      <point x="291" y="1191" type="line"/>
      <point x="329.216" y="1313.3"/>
      <point x="376.108" y="1358"/>
    </contour>
    <contour>
      <point x="389" y="98" type="curve" smooth="yes"/>
      <point x="471.5" y="98"/>
      <point x="485" y="282.3"/>
      <point x="485" y="690.3" type="curve" smooth="yes"/>
      <point x="485" y="940.305"/>
      <point x="471.5" y="1198"/>
      <point x="397" y="1198" type="curve" smooth="yes"/>
      <point x="331.618" y="1198"/>
      <point x="299" y="1130"/>
      <point x="299" y="1059" type="curve" smooth="yes"/>
      <point x="299" y="217" type="line" smooth="yes"/>
      <point x="299" y="150.26"/>
      <point x="324.15" y="98"/>
    </contour>
  </outline>
</glyph>
<glyph name="c" format="1">
  <advance width="683"/>
  <unicode hex="0063"/>
  <outline>
    <contour>
      <point x="356" y="104" type="curve" smooth="yes"/>
      <point x="427.923" y="104"/>
      <point x="446.403" y="186.616"/>
      <point x="446.403" y="283.809" type="curve" smooth="yes"/>
      <point x="446.403" y="379.859"/>
      <point x="428.354" y="490.146"/>
      <point x="426" y="549" type="curve"/>
      <point x="611" y="549" type="line"/>
      <point x="619.055" y="466.644"/>
      <point x="624.081" y="392.63"/>
      <point x="624.081" y="327.257" type="curve" smooth="yes"/>
      <point x="624.081" y="94.2441"/>
      <point x="560.222" y="-29"/>
      <point x="342" y="-29" type="curve" smooth="yes"/>
      <point x="67.5498" y="-29"/>
      <point x="53" y="222.3"/>
      <point x="53" y="680.3" type="curve" smooth="yes"/>
      <point x="53" y="1080.3"/>
      <point x="53" y="1358"/>
      <point x="342" y="1358" type="curve" smooth="yes"/>
      <point x="548.954" y="1358"/>
      <point x="609.364" y="1218.68"/>
      <point x="609.364" y="1010.21" type="curve" smooth="yes"/>
      <point x="609.364" y="959.849"/>
      <point x="605.838" y="905.447"/>
      <point x="600" y="848" type="curve"/>
      <point x="421" y="848" type="line"/>
      <point x="427.333" y="901.938"/>
      <point x="431.566" y="959.321"/>
      <point x="431.566" y="1012.56" type="curve" smooth="yes"/>
      <point x="431.566" y="1127.43"/>
      <point x="411.855" y="1223"/>
      <point x="351" y="1223" type="curve" smooth="yes"/>
      <point x="271" y="1223"/>
      <point x="262" y="1080.3"/>
      <point x="262" y="678.3" type="curve" smooth="yes"/>
      <point x="262" y="231.3"/>
      <point x="270" y="104"/>
    </contour>
  </outline>
</glyph>
<glyph name="e" format="1">
  <advance width="708"/>
  <unicode hex="0065"/>
  <outline>
    <contour>
      <point x="344" y="1358" type="curve" smooth="yes"/>
      <point x="621.257" y="1358"/>
      <point x="643.857" y="1028.97"/>
      <point x="643.857" y="779.03" type="curve" smooth="yes"/>
      <point x="643.857" y="730.348"/>
      <point x="643" y="684.665"/>
      <point x="643" y="645" type="curve"/>
      <point x="256" y="645" type="line"/>
      <point x="256" y="140.3"/>
      <point x="289" y="104"/>
      <point x="369" y="104" type="curve" smooth="yes"/>
      <point x="447.484" y="104"/>
      <point x="463.021" y="199.068"/>
      <point x="463.021" y="299.926" type="curve" smooth="yes"/>
      <point x="463.021" y="316.259"/>
      <point x="462.613" y="332.743"/>
      <point x="462" y="349" type="curve" smooth="yes"/>
      <point x="456" y="508" type="line"/>
      <point x="625" y="508" type="line"/>
      <point x="637.659" y="420.11"/>
      <point x="644.758" y="344.128"/>
      <point x="644.758" y="279.253" type="curve" smooth="yes"/>
      <point x="644.758" y="63.9824"/>
      <point x="566.59" y="-29"/>
      <point x="354" y="-29" type="curve" smooth="yes"/>
      <point x="66" y="-29"/>
      <point x="47" y="288.3"/>
      <point x="47" y="690.3" type="curve" smooth="yes"/>
      <point x="47" y="1018.3"/>
      <point x="72" y="1358"/>
    </contour>
    <contour>
      <point x="344" y="1243" type="curve" smooth="yes"/>
      <point x="260" y="1243"/>
      <point x="256" y="1006.3"/>
      <point x="256" y="760" type="curve"/>
      <point x="448" y="760" type="line"/>
      <point x="448" y="1020.3"/>
      <point x="442" y="1243"/>
    </contour>
  </outline>
</glyph>
<glyph name="i" format="1">
  <advance width="400"/>
  <unicode hex="0069"/>
  <outline>
    <contour>
      <point x="305" y="1865.9" type="line"/>
      <point x="305" y="1615.9" type="line"/>
      <point x="88" y="1615.9" type="line"/>
      <point x="88" y="1865.9" type="line"/>
    </contour>
    <contour>
      <point x="308.496" y="0" type="line"/>
      <point x="91.4961" y="0" type="line"/>
      <point x="91.4961" y="1333" type="line"/>
      <point x="308.496" y="1333" type="line"/>
    </contour>
  </outline>
</glyph>
<glyph name="j" format="1">
  <advance width="393"/>
  <unicode hex="006A"/>
  <outline>
    <contour>
      <point x="299.504" y="1865.9" type="line"/>
      <point x="299.504" y="1615.9" type="line"/>
      <point x="82.5039" y="1615.9" type="line"/>
      <point x="82.5039" y="1865.9" type="line"/>
    </contour>
    <contour>
      <point x="-90" y="-145" type="line"/>
      <point x="68.6641" y="-151.563"/>
      <point x="83.0283" y="-36.252"/>
      <point x="84" y="121" type="curve" smooth="yes"/>
      <point x="84" y="1333" type="line"/>
      <point x="303" y="1333" type="line"/>
      <point x="303" y="152" type="line"/>
      <point x="304.951" y="-150.713"/>
      <point x="220.259" y="-356.778"/>
      <point x="-90" y="-342" type="curve"/>
    </contour>
  </outline>
</glyph>
<glyph name="l" format="1">
  <advance width="401"/>
  <unicode hex="006C"/>
  <outline>
    <contour>
      <point x="309" y="0" type="line"/>
      <point x="90" y="0" type="line"/>
      <point x="90" y="1866" type="line"/>
      <point x="309" y="1866" type="line"/>
    </contour>
  </outline>
</glyph>
<glyph name="m" format="1">
  <advance width="1119"/>
  <unicode hex="006D"/>
  <outline>
    <contour>
      <point x="855" y="1358" type="curve"/>
      <point x="967.795" y="1351.15"/>
      <point x="1034.73" y="1273.83"/>
      <point x="1040" y="1159" type="curve"/>
      <point x="1040" y="0" type="line"/>
      <point x="831" y="0" type="line"/>
      <point x="831" y="1100" type="line" smooth="yes"/>
      <point x="831" y="1154.16"/>
      <point x="804.93" y="1196"/>
      <point x="757" y="1196" type="curve" smooth="yes"/>
      <point x="710.551" y="1196"/>
      <point x="679.137" y="1156.39"/>
      <point x="665" y="1116" type="curve"/>
      <point x="665" y="0" type="line"/>
      <point x="456" y="0" type="line"/>
      <point x="456" y="1100" type="line" smooth="yes"/>
      <point x="456" y="1157.3"/>
      <point x="428.854" y="1196"/>
      <point x="378" y="1196" type="curve" smooth="yes"/>
      <point x="325.477" y="1196"/>
      <point x="288" y="1153.63"/>
      <point x="288" y="1100" type="curve" smooth="yes"/>
      <point x="288" y="0" type="line"/>
      <point x="79" y="0" type="line"/>
      <point x="79" y="1333" type="line"/>
      <point x="278" y="1333" type="line"/>
      <point x="278" y="1221" type="line"/>
      <point x="316.667" y="1299"/>
      <point x="389.667" y="1358"/>
      <point x="477" y="1358" type="curve" smooth="yes"/>
      <point x="564.645" y="1358"/>
      <point x="623.904" y="1278.22"/>
      <point x="651" y="1215" type="curve"/>
      <point x="692.099" y="1279.83"/>
      <point x="756.354" y="1352.32"/>
    </contour>
  </outline>
</glyph>
<glyph name="o" format="1">
  <advance width="702"/>
  <unicode hex="006F"/>
  <outline>
    <contour>
      <point x="344" y="133" type="curve"/>
      <point x="444.944" y="152.506"/>
      <point x="418.96" y="295.867"/>
      <point x="428" y="416" type="curve"/>
      <point x="428" y="895" type="line" smooth="yes"/>
      <point x="428" y="994.081"/>
      <point x="428.844" y="1072.02"/>
      <point x="409" y="1138.5" type="curve" smooth="yes"/>
      <point x="398.265" y="1174.46"/>
      <point x="383.456" y="1196"/>
      <point x="344" y="1196" type="curve"/>
      <point x="238.522" y="1174.77"/>
      <point x="275.536" y="1020.74"/>
      <point x="264" y="895" type="curve"/>
      <point x="264" y="416" type="line" smooth="yes"/>
      <point x="264" y="324.606"/>
      <point x="266.061" y="252.055"/>
      <point x="285" y="190.5" type="curve" smooth="yes"/>
      <point x="295.06" y="157.807"/>
      <point x="309.307" y="133"/>
    </contour>
    <contour>
      <point x="344" y="1358" type="curve"/>
      <point x="581.51" y="1345.03"/>
      <point x="634.709" y="1151.23"/>
      <point x="637" y="874" type="curve"/>
      <point x="637" y="438" type="line" smooth="yes"/>
      <point x="637" y="189.576"/>
      <point x="584.11" y="-29"/>
      <point x="344" y="-29" type="curve" smooth="yes"/>
      <point x="106.336" y="-29"/>
      <point x="55" y="191.306"/>
      <point x="55" y="438" type="curve" smooth="yes"/>
      <point x="55" y="874" type="line"/>
      <point x="57.2783" y="1150.19"/>
      <point x="109.511" y="1343.8"/>
    </contour>
  </outline>
</glyph>
<glyph name="u" format="1">
  <advance width="774"/>
  <unicode hex="0075"/>
  <outline>
    <contour>
      <point x="267" y="-29" type="curve"/>
      <point x="152.5" y="-29"/>
      <point x="74" y="98.5996"/>
      <point x="74" y="214.3" type="curve"/>
      <point x="74" y="1333" type="line"/>
      <point x="291" y="1333" type="line"/>
      <point x="291" y="229" type="line" smooth="yes"/>
      <point x="291" y="175.546"/>
      <point x="313.275" y="121"/>
      <point x="365" y="121" type="curve" smooth="yes"/>
      <point x="423.952" y="121"/>
      <point x="472" y="169.734"/>
      <point x="472" y="229" type="curve" smooth="yes"/>
      <point x="472" y="1333" type="line"/>
      <point x="691" y="1333" type="line"/>
      <point x="691" y="0" type="line"/>
      <point x="492" y="0" type="line"/>
      <point x="492" y="128" type="line"/>
      <point x="454.5" y="40.2998"/>
      <point x="368.5" y="-29"/>
    </contour>
  </outline>
</glyph>
<glyph name="v" format="1">
  <advance width="664"/>
  <unicode hex="0076"/>
  <outline>
    <contour>
      <point x="182" y="1333" type="line"/>
      <point x="335" y="371" type="line"/>
      <point x="468" y="1333" type="line"/>
      <point x="632" y="1333" type="line"/>
      <point x="432" y="0" type="line"/>
      <point x="247" y="0" type="line"/>
      <point x="2" y="1333" type="line"/>
    </contour>
  </outline>
</glyph>
<glyph name="x" format="1">
  <advance width="602"/>
  <unicode hex="0078"/>
  <outline>
    <contour>
      <point x="213" y="0" type="line"/>
      <point x="33" y="0" type="line"/>
      <point x="209" y="690" type="line"/>
      <point x="33" y="1333" type="line"/>
      <point x="191" y="1333" type="line"/>
      <point x="287" y="991" type="line"/>
      <point x="375" y="1333" type="line"/>
      <point x="559" y="1333" type="line"/>
      <point x="383" y="655" type="line"/>
      <point x="570" y="0" type="line"/>
      <point x="402" y="0" type="line"/>
      <point x="303" y="350" type="line"/>
    </contour>
  </outline>
</glyph>
